<?xml version="1.0" encoding="UTF-8" standalone="no"?>
<!DOCTYPE svg PUBLIC "-//W3C//DTD SVG 1.1//EN"
 "http://www.w3.org/Graphics/SVG/1.1/DTD/svg11.dtd">
<!-- Generated by graphviz version 2.43.0 (0)
 -->
<!-- Title: gelu_chain Pages: 1 -->
<svg width="378pt" height="726pt"
 viewBox="0.00 0.00 378.00 725.98" xmlns="http://www.w3.org/2000/svg" xmlns:xlink="http://www.w3.org/1999/xlink">
<g id="graph0" class="graph" transform="scale(1 1) rotate(0) translate(4 721.98)">
<title>gelu_chain</title>
<polygon fill="white" stroke="transparent" points="-4,4 -4,-721.98 374,-721.98 374,4 -4,4"/>
<text text-anchor="middle" x="185" y="-703.58" font-family="Helvetica,sans-Serif" font-size="13.00">gelu_chain: after pass 3 (dne)</text>
<text text-anchor="middle" x="185" y="-689.58" font-family="Helvetica,sans-Serif" font-size="13.00">14 nodes, 9 compute (9 elementwise ops, 0 matmul)</text>
<!-- n0 -->
<g id="node1" class="node">
<title>n0</title>
<ellipse fill="#dbeafe" stroke="black" cx="188" cy="-652.99" rx="64.19" ry="28.98"/>
<text text-anchor="middle" x="188" y="-661.49" font-family="Helvetica,sans-Serif" font-size="10.00">x</text>
<text text-anchor="middle" x="188" y="-650.49" font-family="Helvetica,sans-Serif" font-size="10.00">input</text>
<text text-anchor="middle" x="188" y="-639.49" font-family="Helvetica,sans-Serif" font-size="10.00">f32[1024,4096]</text>
</g>
<!-- n5 -->
<g id="node6" class="node">
<title>n5</title>
<path fill="#fef3c7" stroke="black" d="M103.5,-588C103.5,-588 36.5,-588 36.5,-588 30.5,-588 24.5,-582 24.5,-576 24.5,-576 24.5,-559 24.5,-559 24.5,-553 30.5,-547 36.5,-547 36.5,-547 103.5,-547 103.5,-547 109.5,-547 115.5,-553 115.5,-559 115.5,-559 115.5,-576 115.5,-576 115.5,-582 109.5,-588 103.5,-588"/>
<text text-anchor="middle" x="70" y="-576" font-family="Helvetica,sans-Serif" font-size="10.00">x2</text>
<text text-anchor="middle" x="70" y="-565" font-family="Helvetica,sans-Serif" font-size="10.00">mul</text>
<text text-anchor="middle" x="70" y="-554" font-family="Helvetica,sans-Serif" font-size="10.00">f32[1024,4096]</text>
</g>
<!-- n0&#45;&gt;n5 -->
<g id="edge1" class="edge">
<title>n0&#45;&gt;n5</title>
<path fill="none" stroke="#4b5563" d="M154.19,-628.07C138.43,-616.92 119.73,-603.69 103.96,-592.53"/>
<polygon fill="#4b5563" stroke="#4b5563" points="104.98,-590.25 97.85,-588.21 102.15,-594.25 104.98,-590.25"/>
</g>
<!-- n6 -->
<g id="node7" class="node">
<title>n6</title>
<path fill="#fef3c7" stroke="black" d="M85.5,-511C85.5,-511 18.5,-511 18.5,-511 12.5,-511 6.5,-505 6.5,-499 6.5,-499 6.5,-482 6.5,-482 6.5,-476 12.5,-470 18.5,-470 18.5,-470 85.5,-470 85.5,-470 91.5,-470 97.5,-476 97.5,-482 97.5,-482 97.5,-499 97.5,-499 97.5,-505 91.5,-511 85.5,-511"/>
<text text-anchor="middle" x="52" y="-499" font-family="Helvetica,sans-Serif" font-size="10.00">x3</text>
<text text-anchor="middle" x="52" y="-488" font-family="Helvetica,sans-Serif" font-size="10.00">mul</text>
<text text-anchor="middle" x="52" y="-477" font-family="Helvetica,sans-Serif" font-size="10.00">f32[1024,4096]</text>
</g>
<!-- n0&#45;&gt;n6 -->
<g id="edge3" class="edge">
<title>n0&#45;&gt;n6</title>
<path fill="none" stroke="#4b5563" d="M174.7,-624.26C163.18,-601.94 145.09,-570.53 124,-547 113.59,-535.38 100.49,-524.47 88.32,-515.44"/>
<polygon fill="#4b5563" stroke="#4b5563" points="89.54,-513.3 82.44,-511.16 86.66,-517.26 89.54,-513.3"/>
</g>
<!-- n8 -->
<g id="node9" class="node">
<title>n8</title>
<path fill="#fef3c7" stroke="black" d="M185.5,-357C185.5,-357 118.5,-357 118.5,-357 112.5,-357 106.5,-351 106.5,-345 106.5,-345 106.5,-328 106.5,-328 106.5,-322 112.5,-316 118.5,-316 118.5,-316 185.5,-316 185.5,-316 191.5,-316 197.5,-322 197.5,-328 197.5,-328 197.5,-345 197.5,-345 197.5,-351 191.5,-357 185.5,-357"/>
<text text-anchor="middle" x="152" y="-345" font-family="Helvetica,sans-Serif" font-size="10.00">inner</text>
<text text-anchor="middle" x="152" y="-334" font-family="Helvetica,sans-Serif" font-size="10.00">add</text>
<text text-anchor="middle" x="152" y="-323" font-family="Helvetica,sans-Serif" font-size="10.00">f32[1024,4096]</text>
</g>
<!-- n0&#45;&gt;n8 -->
<g id="edge6" class="edge">
<title>n0&#45;&gt;n8</title>
<path fill="none" stroke="#4b5563" d="M198.68,-624.23C215.84,-574.91 244.05,-469.98 207,-393 201.44,-381.45 192.5,-370.87 183.42,-362.12"/>
<polygon fill="#4b5563" stroke="#4b5563" points="184.89,-360.13 178.09,-357.18 181.56,-363.73 184.89,-360.13"/>
</g>
<!-- n12 -->
<g id="node13" class="node">
<title>n12</title>
<path fill="#fef3c7" stroke="black" d="M351.5,-588C351.5,-588 284.5,-588 284.5,-588 278.5,-588 272.5,-582 272.5,-576 272.5,-576 272.5,-559 272.5,-559 272.5,-553 278.5,-547 284.5,-547 284.5,-547 351.5,-547 351.5,-547 357.5,-547 363.5,-553 363.5,-559 363.5,-559 363.5,-576 363.5,-576 363.5,-582 357.5,-588 351.5,-588"/>
<text text-anchor="middle" x="318" y="-576" font-family="Helvetica,sans-Serif" font-size="10.00">hx</text>
<text text-anchor="middle" x="318" y="-565" font-family="Helvetica,sans-Serif" font-size="10.00">mul</text>
<text text-anchor="middle" x="318" y="-554" font-family="Helvetica,sans-Serif" font-size="10.00">f32[1024,4096]</text>
</g>
<!-- n0&#45;&gt;n12 -->
<g id="edge13" class="edge">
<title>n0&#45;&gt;n12</title>
<path fill="none" stroke="#4b5563" d="M224.21,-628.73C242.03,-617.29 263.47,-603.52 281.35,-592.04"/>
<polygon fill="#4b5563" stroke="#4b5563" points="282.7,-594.08 287.26,-588.24 280.05,-589.96 282.7,-594.08"/>
</g>
<!-- n1 -->
<g id="node2" class="node">
<title>n1</title>
<polygon fill="#e5e7eb" stroke="black" points="348.5,-673.49 287.5,-673.49 287.5,-632.49 348.5,-632.49 348.5,-673.49"/>
<text text-anchor="middle" x="318" y="-661.49" font-family="Helvetica,sans-Serif" font-size="10.00">half</text>
<text text-anchor="middle" x="318" y="-650.49" font-family="Helvetica,sans-Serif" font-size="10.00">const 0.5</text>
<text text-anchor="middle" x="318" y="-639.49" font-family="Helvetica,sans-Serif" font-size="10.00">f32[]</text>
</g>
<!-- n1&#45;&gt;n12 -->
<g id="edge14" class="edge">
<title>n1&#45;&gt;n12</title>
<path fill="none" stroke="#4b5563" d="M318,-632.21C318,-621.18 318,-607.31 318,-595.32"/>
<polygon fill="#4b5563" stroke="#4b5563" points="320.45,-595.14 318,-588.14 315.55,-595.14 320.45,-595.14"/>
</g>
<!-- n2 -->
<g id="node3" class="node">
<title>n2</title>
<polygon fill="#e5e7eb" stroke="black" points="298,-203 244,-203 244,-162 298,-162 298,-203"/>
<text text-anchor="middle" x="271" y="-191" font-family="Helvetica,sans-Serif" font-size="10.00">one</text>
<text text-anchor="middle" x="271" y="-180" font-family="Helvetica,sans-Serif" font-size="10.00">const 1</text>
<text text-anchor="middle" x="271" y="-169" font-family="Helvetica,sans-Serif" font-size="10.00">f32[]</text>
</g>
<!-- n11 -->
<g id="node12" class="node">
<title>n11</title>
<path fill="#fef3c7" stroke="black" d="M294.5,-126C294.5,-126 227.5,-126 227.5,-126 221.5,-126 215.5,-120 215.5,-114 215.5,-114 215.5,-97 215.5,-97 215.5,-91 221.5,-85 227.5,-85 227.5,-85 294.5,-85 294.5,-85 300.5,-85 306.5,-91 306.5,-97 306.5,-97 306.5,-114 306.5,-114 306.5,-120 300.5,-126 294.5,-126"/>
<text text-anchor="middle" x="261" y="-114" font-family="Helvetica,sans-Serif" font-size="10.00">p</text>
<text text-anchor="middle" x="261" y="-103" font-family="Helvetica,sans-Serif" font-size="10.00">add</text>
<text text-anchor="middle" x="261" y="-92" font-family="Helvetica,sans-Serif" font-size="10.00">f32[1024,4096]</text>
</g>
<!-- n2&#45;&gt;n11 -->
<g id="edge12" class="edge">
<title>n2&#45;&gt;n11</title>
<path fill="none" stroke="#4b5563" d="M268.37,-161.79C267.2,-153.01 265.8,-142.53 264.54,-133.07"/>
<polygon fill="#4b5563" stroke="#4b5563" points="266.96,-132.69 263.61,-126.07 262.11,-133.34 266.96,-132.69"/>
</g>
<!-- n3 -->
<g id="node4" class="node">
<title>n3</title>
<polygon fill="#e5e7eb" stroke="black" points="206.5,-511 115.5,-511 115.5,-470 206.5,-470 206.5,-511"/>
<text text-anchor="middle" x="161" y="-499" font-family="Helvetica,sans-Serif" font-size="10.00">coef</text>
<text text-anchor="middle" x="161" y="-488" font-family="Helvetica,sans-Serif" font-size="10.00">const 0.044715</text>
<text text-anchor="middle" x="161" y="-477" font-family="Helvetica,sans-Serif" font-size="10.00">f32[]</text>
</g>
<!-- n7 -->
<g id="node8" class="node">
<title>n7</title>
<path fill="#fef3c7" stroke="black" d="M185.5,-434C185.5,-434 118.5,-434 118.5,-434 112.5,-434 106.5,-428 106.5,-422 106.5,-422 106.5,-405 106.5,-405 106.5,-399 112.5,-393 118.5,-393 118.5,-393 185.5,-393 185.5,-393 191.5,-393 197.5,-399 197.5,-405 197.5,-405 197.5,-422 197.5,-422 197.5,-428 191.5,-434 185.5,-434"/>
<text text-anchor="middle" x="152" y="-422" font-family="Helvetica,sans-Serif" font-size="10.00">t</text>
<text text-anchor="middle" x="152" y="-411" font-family="Helvetica,sans-Serif" font-size="10.00">mul</text>
<text text-anchor="middle" x="152" y="-400" font-family="Helvetica,sans-Serif" font-size="10.00">f32[1024,4096]</text>
</g>
<!-- n3&#45;&gt;n7 -->
<g id="edge5" class="edge">
<title>n3&#45;&gt;n7</title>
<path fill="none" stroke="#4b5563" d="M158.64,-469.79C157.58,-461.01 156.32,-450.53 155.19,-441.07"/>
<polygon fill="#4b5563" stroke="#4b5563" points="157.62,-440.73 154.35,-434.07 152.75,-441.32 157.62,-440.73"/>
</g>
<!-- n4 -->
<g id="node5" class="node">
<title>n4</title>
<polygon fill="#e5e7eb" stroke="black" points="306.5,-357 215.5,-357 215.5,-316 306.5,-316 306.5,-357"/>
<text text-anchor="middle" x="261" y="-345" font-family="Helvetica,sans-Serif" font-size="10.00">c</text>
<text text-anchor="middle" x="261" y="-334" font-family="Helvetica,sans-Serif" font-size="10.00">const 0.797885</text>
<text text-anchor="middle" x="261" y="-323" font-family="Helvetica,sans-Serif" font-size="10.00">f32[]</text>
</g>
<!-- n9 -->
<g id="node10" class="node">
<title>n9</title>
<path fill="#fef3c7" stroke="black" d="M213.5,-280C213.5,-280 146.5,-280 146.5,-280 140.5,-280 134.5,-274 134.5,-268 134.5,-268 134.5,-251 134.5,-251 134.5,-245 140.5,-239 146.5,-239 146.5,-239 213.5,-239 213.5,-239 219.5,-239 225.5,-245 225.5,-251 225.5,-251 225.5,-268 225.5,-268 225.5,-274 219.5,-280 213.5,-280"/>
<text text-anchor="middle" x="180" y="-268" font-family="Helvetica,sans-Serif" font-size="10.00">u</text>
<text text-anchor="middle" x="180" y="-257" font-family="Helvetica,sans-Serif" font-size="10.00">mul</text>
<text text-anchor="middle" x="180" y="-246" font-family="Helvetica,sans-Serif" font-size="10.00">f32[1024,4096]</text>
</g>
<!-- n4&#45;&gt;n9 -->
<g id="edge9" class="edge">
<title>n4&#45;&gt;n9</title>
<path fill="none" stroke="#4b5563" d="M239.72,-315.79C229.49,-306.32 217.12,-294.87 206.31,-284.86"/>
<polygon fill="#4b5563" stroke="#4b5563" points="207.94,-283.03 201.14,-280.07 204.61,-286.63 207.94,-283.03"/>
</g>
<!-- n5&#45;&gt;n6 -->
<g id="edge2" class="edge">
<title>n5&#45;&gt;n6</title>
<path fill="none" stroke="#4b5563" d="M65.27,-546.79C63.16,-538.01 60.65,-527.53 58.38,-518.07"/>
<polygon fill="#4b5563" stroke="#4b5563" points="60.71,-517.31 56.7,-511.07 55.95,-518.45 60.71,-517.31"/>
</g>
<!-- n6&#45;&gt;n7 -->
<g id="edge4" class="edge">
<title>n6&#45;&gt;n7</title>
<path fill="none" stroke="#4b5563" d="M78.01,-469.99C90.87,-460.34 106.51,-448.62 120.09,-438.43"/>
<polygon fill="#4b5563" stroke="#4b5563" points="121.64,-440.33 125.77,-434.17 118.7,-436.41 121.64,-440.33"/>
</g>
<!-- n7&#45;&gt;n8 -->
<g id="edge7" class="edge">
<title>n7&#45;&gt;n8</title>
<path fill="none" stroke="#4b5563" d="M152,-392.79C152,-384.1 152,-373.73 152,-364.35"/>
<polygon fill="#4b5563" stroke="#4b5563" points="154.45,-364.07 152,-357.07 149.55,-364.07 154.45,-364.07"/>
</g>
<!-- n8&#45;&gt;n9 -->
<g id="edge8" class="edge">
<title>n8&#45;&gt;n9</title>
<path fill="none" stroke="#4b5563" d="M159.36,-315.79C162.67,-306.92 166.63,-296.32 170.19,-286.79"/>
<polygon fill="#4b5563" stroke="#4b5563" points="172.54,-287.49 172.69,-280.07 167.95,-285.77 172.54,-287.49"/>
</g>
<!-- n10 -->
<g id="node11" class="node">
<title>n10</title>
<path fill="#fef3c7" stroke="black" d="M213.5,-203C213.5,-203 146.5,-203 146.5,-203 140.5,-203 134.5,-197 134.5,-191 134.5,-191 134.5,-174 134.5,-174 134.5,-168 140.5,-162 146.5,-162 146.5,-162 213.5,-162 213.5,-162 219.5,-162 225.5,-168 225.5,-174 225.5,-174 225.5,-191 225.5,-191 225.5,-197 219.5,-203 213.5,-203"/>
<text text-anchor="middle" x="180" y="-191" font-family="Helvetica,sans-Serif" font-size="10.00">th</text>
<text text-anchor="middle" x="180" y="-180" font-family="Helvetica,sans-Serif" font-size="10.00">tanh</text>
<text text-anchor="middle" x="180" y="-169" font-family="Helvetica,sans-Serif" font-size="10.00">f32[1024,4096]</text>
</g>
<!-- n9&#45;&gt;n10 -->
<g id="edge10" class="edge">
<title>n9&#45;&gt;n10</title>
<path fill="none" stroke="#4b5563" d="M180,-238.79C180,-230.1 180,-219.73 180,-210.35"/>
<polygon fill="#4b5563" stroke="#4b5563" points="182.45,-210.07 180,-203.07 177.55,-210.07 182.45,-210.07"/>
</g>
<!-- n10&#45;&gt;n11 -->
<g id="edge11" class="edge">
<title>n10&#45;&gt;n11</title>
<path fill="none" stroke="#4b5563" d="M201.28,-161.79C211.51,-152.32 223.88,-140.87 234.69,-130.86"/>
<polygon fill="#4b5563" stroke="#4b5563" points="236.39,-132.63 239.86,-126.07 233.06,-129.03 236.39,-132.63"/>
</g>
<!-- n13 -->
<g id="node14" class="node">
<title>n13</title>
<path fill="#fef3c7" stroke="black" stroke-width="1.5" d="M331.5,-45C331.5,-45 264.5,-45 264.5,-45 258.5,-45 252.5,-39 252.5,-33 252.5,-33 252.5,-16 252.5,-16 252.5,-10 258.5,-4 264.5,-4 264.5,-4 331.5,-4 331.5,-4 337.5,-4 343.5,-10 343.5,-16 343.5,-16 343.5,-33 343.5,-33 343.5,-39 337.5,-45 331.5,-45"/>
<path fill="none" stroke="black" stroke-width="1.5" d="M335.5,-49C335.5,-49 260.5,-49 260.5,-49 254.5,-49 248.5,-43 248.5,-37 248.5,-37 248.5,-12 248.5,-12 248.5,-6 254.5,0 260.5,0 260.5,0 335.5,0 335.5,0 341.5,0 347.5,-6 347.5,-12 347.5,-12 347.5,-37 347.5,-37 347.5,-43 341.5,-49 335.5,-49"/>
<text text-anchor="middle" x="298" y="-33" font-family="Helvetica,sans-Serif" font-size="10.00">y</text>
<text text-anchor="middle" x="298" y="-22" font-family="Helvetica,sans-Serif" font-size="10.00">mul</text>
<text text-anchor="middle" x="298" y="-11" font-family="Helvetica,sans-Serif" font-size="10.00">f32[1024,4096]</text>
</g>
<!-- n11&#45;&gt;n13 -->
<g id="edge16" class="edge">
<title>n11&#45;&gt;n13</title>
<path fill="none" stroke="#4b5563" d="M270.15,-84.97C274.32,-76.05 279.37,-65.29 284.01,-55.38"/>
<polygon fill="#4b5563" stroke="#4b5563" points="286.23,-56.4 286.98,-49.02 281.79,-54.32 286.23,-56.4"/>
</g>
<!-- n12&#45;&gt;n13 -->
<g id="edge15" class="edge">
<title>n12&#45;&gt;n13</title>
<path fill="none" stroke="#4b5563" d="M321.61,-546.9C326.6,-518.03 335,-462.3 335,-414.5 335,-414.5 335,-414.5 335,-181.5 335,-136.86 320.48,-86.93 309.63,-55.85"/>
<polygon fill="#4b5563" stroke="#4b5563" points="311.9,-54.91 307.24,-49.14 307.28,-56.55 311.9,-54.91"/>
</g>
</g>
</svg>
